# xmcd
#
# Track frame offsets:
#	150
#	13554
#	26110
#	38440
#	49568
#	61147
#	74014
#	90326
#	102165
#	114410
#	126417
#	138472
#
# Disc length: 1967 seconds
#
# Revision: 1
# Processed by: cddbd v1.5.1PL2 Copyright (c) Steve Scherf et al.
# Submitted via: audiograbber 1.81.03
#
DISCID=9a07ad0c
DTITLE=Mr. President - On The Road Again
DYEAR=1985
DGENRE=Country
TTITLE0=Hello Buddy
TTITLE1=Deep In The Heart Of Texas
TTITLE2=Turn Out The Light
TTITLE3=Move On
TTITLE4=Truckdrivin' Man
TTITLE5=The Last Viking
TTITLE6=Boogie Grass Saturday Night
TTITLE7=Rollin' Crome And Smoke
TTITLE8=Blue Eyes Cryin' In The Rain
TTITLE9=Texas When I Die
TTITLE10=Back On The Road Again
TTITLE11=The Last Country Song
EXTD=
EXTT0=
EXTT1=
EXTT2=
EXTT3=
EXTT4=
EXTT5=
EXTT6=
EXTT7=
EXTT8=
EXTT9=
EXTT10=
EXTT11=
PLAYORDER=
